# xmcd CD database file
#
# Track frame offsets:
#	150
#	14782
#	30600
#	44975
#	58852
#	73945
#	88285
#	105225
#	120792
#	134717
#	150015
#	164412
#	177460
#	191825
#	207750
#	223017
#	237645
#	253142
#
# Disc length: 3550 seconds
#
# Revision: 3
# Processed by: cddbd v1.5.2PL0 Copyright (c) Steve Scherf et al.
# Submitted via: CDex 1.99.1
#
DISCID=140ddc12
DTITLE=Bessie Smith - Bessie Smith Empress of the Blues_  The Complete Recordings [Volume 2 Disc 2]
DYEAR=1900
DGENRE=Blues
TTITLE0=Cold In Hand Blues
TTITLE1=You've Been a Good Ole Wagon
TTITLE2=Cake Walkin' babies (From Home)
TTITLE3=The Yellow Dog Blues
TTITLE4=Soft Pedal Blues
TTITLE5=Dixie Flyer Blues
TTITLE6=Nashville Woman's Blues
TTITLE7=Careless Love Blues
TTITLE8=J.C. Holmes Blues
TTITLE9=I Ain't Goin' to Play Second Fiddle
TTITLE10=He's Gone Blues
TTITLE11=Nobody's Blues But Mine
TTITLE12=I Ain't Got Nobody
TTITLE13=My Man Blues
TTITLE14=New Gulf Coast Blues
TTITLE15=Florida Bound Blues
TTITLE16=At the Christmas Ball
TTITLE17=I've Been Mistreated and I Don't Like It
EXTD=
EXTT0=
EXTT1=
EXTT2=
EXTT3=
EXTT4=
EXTT5=
EXTT6=
EXTT7=
EXTT8=
EXTT9=
EXTT10=
EXTT11=
EXTT12=
EXTT13=
EXTT14=
EXTT15=
EXTT16=
EXTT17=
PLAYORDER=
